<svg width="27" height="26" viewBox="0 0 27 26" fill="currentColor" xmlns="http://www.w3.org/2000/svg">
<path d="M25.9806 8.30908L23.7828 3.18433C23.457 2.4245 23.294 2.04455 23.0316 1.76566C22.7996 1.51917 22.5131 1.33039 22.1951 1.21444C21.8352 1.08325 21.4215 1.08325 20.5943 1.08325H5.65588C4.82862 1.08325 4.41499 1.08325 4.05509 1.21444C3.73701 1.33039 3.45052 1.51917 3.21858 1.76566C2.95614 2.04455 2.79321 2.42448 2.46733 3.18433L0.269508 8.30908H25.9806Z" fill="currentColor"/>
<path fill-rule="evenodd" clip-rule="evenodd" d="M2.28434 14.6472C2.87574 14.8641 3.51473 14.9824 4.18145 14.9824C5.27969 14.9824 6.30367 14.6603 7.16266 14.1068C8.02165 14.6603 9.04563 14.9824 10.1439 14.9824C11.2421 14.9824 12.2661 14.6603 13.1251 14.1068C13.9841 14.6603 15.008 14.9824 16.1063 14.9824C17.2045 14.9824 18.2285 14.6603 19.0875 14.1068C19.9465 14.6603 20.9704 14.9824 22.0687 14.9824C22.7354 14.9824 23.3744 14.8641 23.9658 14.6472V21.4499C23.9658 22.6634 23.9658 23.2701 23.7295 23.7336C23.5216 24.1412 23.19 24.4727 22.782 24.6804C22.3182 24.9166 21.7111 24.9166 20.4968 24.9166H5.75338C4.5391 24.9166 3.93196 24.9166 3.46817 24.6804C3.0602 24.4727 2.72852 24.1412 2.52065 23.7336C2.28434 23.2701 2.28434 22.6634 2.28434 21.4499V14.6472ZM4.45243 19.0666C4.45243 18.4599 4.45243 18.1565 4.57059 17.9248C4.67452 17.7209 4.84036 17.5552 5.04435 17.4513C5.27624 17.3333 5.57981 17.3333 6.18695 17.3333H10.3064C10.9136 17.3333 11.2171 17.3333 11.449 17.4513C11.653 17.5552 11.8189 17.7209 11.9228 17.9248C12.041 18.1565 12.041 18.4599 12.041 19.0666V21.0166C12.041 21.6233 12.041 21.9267 11.9228 22.1584C11.8189 22.3622 11.653 22.528 11.449 22.6318C11.2171 22.7499 10.9136 22.7499 10.3064 22.7499H6.18695C5.57981 22.7499 5.27624 22.7499 5.04435 22.6318C4.84036 22.528 4.67452 22.3622 4.57059 22.1584C4.45243 21.9267 4.45243 21.6233 4.45243 21.0166V19.0666Z" fill="currentColor"/>
<path d="M4.18139 13.5416C2.02727 13.5416 0.264462 11.8673 0.125 9.74992H26.125C25.9855 11.8673 24.2227 13.5416 22.0686 13.5416C20.8907 13.5416 19.8299 13.041 19.0874 12.2411C18.345 13.041 17.2841 13.5416 16.1062 13.5416C14.9283 13.5416 13.8675 13.041 13.125 12.2411C12.3826 13.041 11.3217 13.5416 10.1438 13.5416C8.96592 13.5416 7.90505 13.041 7.16259 12.2411C6.42014 13.041 5.35926 13.5416 4.18139 13.5416Z" fill="currentColor"/>
</svg>
