<svg width="40" height="40" viewBox="0 0 40 40" fill="none" xmlns="http://www.w3.org/2000/svg">
<path fill-rule="evenodd" clip-rule="evenodd" d="M27.3438 10.9734C27.8586 10.9734 28.3734 11.0497 28.9126 11.2998C29.5589 11.6018 29.8999 12.076 30.1403 12.4267C30.4546 12.9416 30.6204 13.5334 30.6194 14.1366C30.6216 14.7306 30.4718 15.3153 30.1841 15.8351L20.9762 31.6495C20.7737 31.999 20.3998 32.2136 19.9959 32.2123C19.5919 32.211 19.2195 31.9939 19.0193 31.643L9.9819 15.8611L9.97378 15.8481C9.76753 15.5071 9.44761 14.981 9.39077 14.3006C9.28616 13.0194 9.9878 11.8078 11.1512 11.2608C11.7618 10.9766 12.3805 10.9734 12.7703 10.9734H27.3438ZM18.8699 13.2338H12.7703C12.3691 13.2338 12.2149 13.2581 12.1077 13.3085C11.7976 13.452 11.6116 13.7753 11.6432 14.1155C11.6513 14.2129 11.6903 14.3217 11.9209 14.7017L11.9355 14.7261L18.8699 26.8349V13.2338ZM21.1305 26.895L28.2272 14.7066C28.3167 14.53 28.3624 14.3345 28.3604 14.1366C28.3604 13.9628 28.3247 13.8118 28.2435 13.6559C28.1902 13.5744 28.1305 13.4973 28.0648 13.4254C28.0347 13.3925 27.9983 13.366 27.9577 13.3474C27.7647 13.2622 27.5545 13.2233 27.3438 13.2338H21.1305V26.895Z" fill="white"/>
</svg>
